<svg width="650" height="95" viewBox="0 0 650 95" fill="none" xmlns="http://www.w3.org/2000/svg">
<path d="M352 81.7591V11.9839H394.577V20.5278H361.469V40.962H386.959V49.5771H361.469V81.7591H352ZM433.309 32.9165H442.281V81.7591H434.306L433.309 76.348C431.743 78.5789 429.868 80.1928 427.685 81.1895C425.549 82.2338 422.914 82.7559 419.782 82.7559C413.943 82.7559 409.481 80.9759 406.396 77.416C403.311 73.856 401.768 68.4924 401.768 61.325V32.9165H410.739V58.833C410.739 64.1492 411.641 68.1364 413.445 70.7945C415.296 73.4526 418.168 74.7816 422.06 74.7816C424.386 74.7816 426.569 74.307 428.61 73.3576C430.651 72.4558 432.218 71.103 433.309 69.2993V32.9165ZM467.058 82.7559C462.644 82.7559 459.44 81.6167 457.446 79.3384C455.405 77.1075 454.384 74.3307 454.384 71.0081V7H463.356V65.8105C463.356 68.7534 463.545 70.8894 463.925 72.2184C464.257 73.5475 464.969 74.4256 466.061 74.8528C467.105 75.3275 468.814 75.5648 471.187 75.5648L469.906 82.7559H467.058ZM490.554 82.7559C486.187 82.7559 482.983 81.6167 480.942 79.3384C478.901 77.1075 477.88 74.3307 477.88 71.0081V7H486.851V65.8105C486.851 68.7534 487.041 70.8894 487.421 72.2184C487.801 73.5475 488.513 74.4256 489.557 74.8528C490.601 75.3275 492.334 75.5648 494.754 75.5648L493.473 82.7559H490.554ZM512.91 82.7559C508.353 82.7559 504.698 81.4269 501.945 78.7688C499.192 76.1107 497.816 72.7168 497.816 68.5873C497.816 62.4167 500.735 58.0023 506.573 55.3442C512.459 52.6861 519.271 51.2859 527.008 51.1435C527.008 46.7766 526.177 43.81 524.516 42.2436C522.807 40.6772 520.101 39.894 516.399 39.894C514.31 39.894 512.246 40.2026 510.205 40.8196C508.116 41.4841 505.885 42.6471 503.512 44.3084L502.23 36.9749C504.224 35.4559 506.668 34.2456 509.564 33.3437C512.507 32.3944 515.568 31.9197 518.748 31.9197C522.925 31.9197 526.272 32.6554 528.788 34.1269C531.256 35.5983 533.083 38.0191 534.27 41.3892C535.409 44.7593 535.979 49.411 535.979 55.3442V65.3121C535.979 67.9702 536.097 69.9875 536.335 71.3641C536.572 72.6931 537.094 73.7374 537.901 74.4968C538.708 75.2088 539.942 75.5648 541.603 75.5648H542.458L541.105 82.7559H540.393C537.592 82.7559 535.409 82.4949 533.843 81.9727C532.229 81.4506 531.018 80.6912 530.212 79.6944C529.357 78.6976 528.574 77.3211 527.862 75.5648C523.732 80.3589 518.748 82.7559 512.91 82.7559ZM514.548 75.5648C516.968 75.5648 519.294 74.9715 521.525 73.7848C523.756 72.5982 525.584 71.0081 527.008 69.0145V57.3378C519.84 57.6226 514.714 58.5719 511.629 60.1858C508.543 61.7996 507.001 64.434 507.001 68.0889C507.001 70.6046 507.689 72.4795 509.065 73.7136C510.394 74.9477 512.222 75.5648 514.548 75.5648ZM573.501 31.9197C586.791 31.9197 593.436 39.5618 593.436 54.8458V81.7591H584.465V54.8458C584.465 49.5771 583.492 45.7798 581.546 43.454C579.553 41.0807 576.277 39.894 571.721 39.894C568.778 39.894 566.12 40.4161 563.746 41.4604C561.326 42.5521 559.522 44.166 558.335 46.3019V81.7591H549.364V32.9165H556.342L557.338 38.114C559.949 35.7882 562.56 34.1744 565.17 33.2725C567.781 32.3706 570.558 31.9197 573.501 31.9197ZM629.178 31.9197C642.469 31.9197 649.114 39.5618 649.114 54.8458V81.7591H640.143V54.8458C640.143 49.5771 639.17 45.7798 637.224 43.454C635.278 41.0807 632.003 39.894 627.398 39.894C624.503 39.894 621.845 40.4161 619.424 41.4604C617.051 42.5521 615.271 44.166 614.084 46.3019V81.7591H605.113V32.9165H612.091L613.087 38.114C615.651 35.7882 618.261 34.1744 620.919 33.2725C623.53 32.3706 626.283 31.9197 629.178 31.9197Z" fill="white"/>
<path d="M262.75 0H244.643C239.393 0 235 4.28571 235 9.64286C235 10.9286 236.071 12 237.357 12C238.643 12 239.714 10.7143 239.714 9.42857C239.714 6.75 241.964 4.28571 244.643 4.28571H262.75C265.429 4.28571 267.143 6.85714 267.143 9.64286V27.75C267.143 30.4286 265.429 32.1429 262.75 32.1429H244.643C241.964 32.1429 239.714 30.2143 239.714 27.4286C239.714 26.1429 238.643 25.1786 237.357 25.1786C236.071 25.2857 235 26.4643 235 27.75C235 33 239.286 37.5 244.643 37.5H262.75C268 37.5 272.5 33 272.5 27.75V9.64286C272.5 4.28571 268 0 262.75 0ZM262.75 49.2857H244.643C239.393 49.2857 235 53.25 235 58.5V76.6071C235 81.8571 239.286 85.7143 244.643 85.7143H262.75C268 85.7143 272.5 81.9643 272.5 76.6071V58.5C272.5 53.25 268 49.2857 262.75 49.2857ZM267.143 76.6071C267.143 79.2857 265.429 81.4286 262.75 81.4286H244.643C241.964 81.4286 239.286 79.3929 239.286 76.6071V58.5C239.286 55.8214 241.857 53.5714 244.643 53.5714H262.75C265.429 53.5714 267.143 55.8214 267.143 58.5V76.6071ZM293.5 37.5H311.607C316.857 37.5 320.714 33 320.714 27.75V9.64286C320.714 4.39286 316.964 0 311.607 0H293.5C288.25 0 284.286 4.28571 284.286 9.64286V27.75C284.286 33 288.25 37.5 293.5 37.5ZM288.571 9.64286C288.571 6.96429 290.821 4.28571 293.5 4.28571H311.607C314.286 4.28571 316.429 6.85714 316.429 9.64286V27.75C316.429 30.4286 314.393 32.1429 311.607 32.1429H293.5C290.821 32.1429 288.571 30.4286 288.571 27.75V9.64286ZM322.214 60.8571L309.357 48C307.536 46.1786 305.179 45.2143 302.607 45.2143C300.036 45.2143 297.679 46.1786 295.857 48L283 60.8571C281.179 62.6786 280.214 65.0357 280.214 67.6071C280.214 70.1786 281.179 72.5357 283 74.3571L295.857 87.2143C297.679 89.0357 300.036 90 302.607 90C305.179 90 307.536 89.0357 309.357 87.2143L322.214 74.3571C324.036 72.5357 325 70.1786 325 67.6071C325 65.0357 324.036 62.5714 322.214 60.8571ZM318.893 71.0357L306.036 83.8929C304.107 85.8214 301 85.8214 299.071 83.8929L286.214 71.0357C284.286 69.1071 284.286 66 286.214 64.0714L299.071 51.2143C300.036 50.25 301.321 49.8214 302.5 49.8214C303.786 49.8214 304.964 50.25 305.929 51.2143L318.786 64.0714C320.821 66 320.821 69.1071 318.893 71.0357Z" fill="white"/>
<path d="M4.40341 46.6364H9.65909L22.017 76.821H22.4432L34.8011 46.6364H40.0568V83H35.9375V55.3722H35.5824L24.2188 83H20.2415L8.87784 55.3722H8.52273V83H4.40341V46.6364ZM56.3432 83.6392C54.615 83.6392 53.0466 83.3137 51.638 82.6626C50.2293 81.9998 49.1107 81.0469 48.2821 79.804C47.4535 78.5492 47.0392 77.0341 47.0392 75.2585C47.0392 73.696 47.347 72.4295 47.9625 71.4588C48.5781 70.4763 49.4007 69.7069 50.4306 69.1506C51.4604 68.5942 52.5968 68.1799 53.8397 67.9077C55.0944 67.6236 56.3551 67.3987 57.6216 67.233C59.2788 67.0199 60.6223 66.8601 61.6522 66.7536C62.6938 66.6352 63.4514 66.4399 63.9249 66.1676C64.4102 65.8954 64.6529 65.4219 64.6529 64.7472V64.6051C64.6529 62.8532 64.1735 61.492 63.2147 60.5213C62.2677 59.5507 60.8295 59.0653 58.9 59.0653C56.8996 59.0653 55.3311 59.5033 54.1948 60.3793C53.0584 61.2552 52.2594 62.1903 51.7978 63.1847L47.8205 61.7642C48.5307 60.107 49.4777 58.8168 50.6614 57.8935C51.8569 56.9583 53.159 56.3073 54.5676 55.9403C55.9881 55.5616 57.3849 55.3722 58.758 55.3722C59.6339 55.3722 60.6401 55.4787 61.7765 55.6918C62.9247 55.893 64.0314 56.3132 65.0968 56.9524C66.1739 57.5916 67.0676 58.5563 67.7779 59.8466C68.4881 61.1368 68.8432 62.8651 68.8432 65.0312V83H64.6529V79.3068H64.4398C64.1557 79.8987 63.6822 80.532 63.0194 81.2067C62.3565 81.8814 61.4746 82.4555 60.3738 82.929C59.2729 83.4025 57.9294 83.6392 56.3432 83.6392ZM56.9824 79.875C58.6396 79.875 60.0364 79.5495 61.1728 78.8984C62.321 78.2474 63.1851 77.407 63.7651 76.3771C64.3569 75.3473 64.6529 74.2642 64.6529 73.1278V69.2926C64.4753 69.5057 64.0847 69.701 63.481 69.8786C62.8891 70.0443 62.2026 70.1922 61.4213 70.3224C60.6519 70.4408 59.9003 70.5473 59.1664 70.642C58.4443 70.7249 57.8584 70.7959 57.4086 70.8551C56.3195 70.9972 55.3016 71.228 54.3546 71.5476C53.4194 71.8554 52.6619 72.3229 52.0819 72.9503C51.5137 73.5658 51.2296 74.4062 51.2296 75.4716C51.2296 76.9276 51.7682 78.0284 52.8453 78.7741C53.9344 79.508 55.3134 79.875 56.9824 79.875ZM86.7898 83.5682C84.517 83.5682 82.5107 82.9941 80.7706 81.8459C79.0305 80.6858 77.6693 79.0523 76.6868 76.9453C75.7043 74.8265 75.2131 72.3229 75.2131 69.4347C75.2131 66.5701 75.7043 64.0843 76.6868 61.9773C77.6693 59.8703 79.0365 58.2427 80.7884 57.0945C82.5402 55.9463 84.5644 55.3722 86.8608 55.3722C88.6364 55.3722 90.0391 55.6681 91.0689 56.2599C92.1106 56.84 92.9036 57.5028 93.4482 58.2486C94.0045 58.9825 94.4366 59.5862 94.7443 60.0597H95.0994V46.6364H99.2898V83H95.2415V78.8097H94.7443C94.4366 79.3068 93.9986 79.9342 93.4304 80.6918C92.8622 81.4375 92.0514 82.1063 90.9979 82.6982C89.9444 83.2782 88.5417 83.5682 86.7898 83.5682ZM87.358 79.804C89.0388 79.804 90.4593 79.366 91.6193 78.4901C92.7794 77.6023 93.6612 76.3771 94.2649 74.8146C94.8686 73.2403 95.1705 71.4233 95.1705 69.3636C95.1705 67.3277 94.8745 65.5462 94.2827 64.0192C93.6908 62.4804 92.8149 61.2848 91.6548 60.4325C90.4948 59.5684 89.0625 59.1364 87.358 59.1364C85.5824 59.1364 84.1027 59.5921 82.919 60.5036C81.7472 61.4032 80.8653 62.6283 80.2734 64.179C79.6934 65.7178 79.4034 67.446 79.4034 69.3636C79.4034 71.3049 79.6993 73.0687 80.2912 74.6548C80.8949 76.2292 81.7827 77.4839 82.9545 78.419C84.1383 79.3423 85.6061 79.804 87.358 79.804ZM118.981 83.5682C116.353 83.5682 114.086 82.9882 112.18 81.8281C110.286 80.6562 108.825 79.0227 107.795 76.9276C106.777 74.8205 106.268 72.3703 106.268 69.5767C106.268 66.7831 106.777 64.321 107.795 62.1903C108.825 60.0478 110.257 58.3788 112.092 57.1832C113.938 55.9759 116.093 55.3722 118.555 55.3722C119.975 55.3722 121.378 55.6089 122.763 56.0824C124.148 56.5559 125.408 57.3253 126.545 58.3906C127.681 59.4441 128.587 60.8409 129.261 62.581C129.936 64.321 130.273 66.4635 130.273 69.0085V70.7841H109.251V67.1619H126.012C126.012 65.6231 125.704 64.25 125.089 63.0426C124.485 61.8352 123.621 60.8823 122.496 60.1839C121.384 59.4856 120.07 59.1364 118.555 59.1364C116.886 59.1364 115.442 59.5507 114.222 60.3793C113.015 61.196 112.086 62.2614 111.435 63.5753C110.784 64.8892 110.458 66.2978 110.458 67.8011V70.2159C110.458 72.2756 110.813 74.0215 111.523 75.4538C112.246 76.8743 113.246 77.9574 114.524 78.7031C115.803 79.437 117.288 79.804 118.981 79.804C120.082 79.804 121.076 79.6501 121.964 79.3423C122.863 79.0227 123.639 78.5492 124.29 77.9219C124.941 77.2827 125.444 76.4896 125.799 75.5426L129.847 76.679C129.421 78.0521 128.705 79.2595 127.699 80.3011C126.693 81.331 125.45 82.1359 123.97 82.7159C122.491 83.2841 120.827 83.5682 118.981 83.5682ZM151.278 83V46.6364H163.991C166.525 46.6364 168.614 47.0743 170.259 47.9503C171.905 48.8144 173.13 49.9803 173.935 51.4482C174.74 52.9041 175.142 54.5199 175.142 56.2955C175.142 57.858 174.864 59.1482 174.308 60.1662C173.763 61.1842 173.041 61.9891 172.141 62.581C171.254 63.1728 170.289 63.6108 169.247 63.8949V64.25C170.36 64.321 171.478 64.7116 172.603 65.4219C173.728 66.1321 174.669 67.1501 175.426 68.4759C176.184 69.8016 176.562 71.4233 176.562 73.3409C176.562 75.1638 176.148 76.8033 175.32 78.2592C174.491 79.7152 173.183 80.8693 171.396 81.7216C169.608 82.5739 167.282 83 164.418 83H151.278ZM155.682 79.0938H164.418C167.294 79.0938 169.336 78.5374 170.543 77.4247C171.763 76.3002 172.372 74.9389 172.372 73.3409C172.372 72.1098 172.058 70.9735 171.431 69.9318C170.804 68.8783 169.91 68.0379 168.75 67.4105C167.59 66.7713 166.217 66.4517 164.631 66.4517H155.682V79.0938ZM155.682 62.6165H163.849C165.175 62.6165 166.371 62.3561 167.436 61.8352C168.513 61.3144 169.366 60.5805 169.993 59.6335C170.632 58.6866 170.952 57.5739 170.952 56.2955C170.952 54.6974 170.395 53.3421 169.283 52.2294C168.17 51.1049 166.406 50.5426 163.991 50.5426H155.682V62.6165ZM185.929 93.2273C185.218 93.2273 184.585 93.1681 184.029 93.0497C183.472 92.9432 183.088 92.8366 182.875 92.7301L183.94 89.0369C184.958 89.2973 185.858 89.392 186.639 89.321C187.42 89.25 188.113 88.9008 188.716 88.2734C189.332 87.6579 189.894 86.6577 190.403 85.2727L191.184 83.142L181.099 55.7273H185.645L193.173 77.4602H193.457L200.985 55.7273H205.531L193.954 86.9773C193.433 88.3859 192.788 89.5518 192.019 90.4751C191.249 91.4103 190.356 92.1027 189.338 92.5526C188.332 93.0024 187.195 93.2273 185.929 93.2273Z" fill="white"/>
</svg>
